<svg xmlns="http://www.w3.org/2000/svg" version="1.1" xmlns:xlink="http://www.w3.org/1999/xlink" xmlns:svgjs="http://svgjs.com/svgjs" width="1440" height="560" preserveAspectRatio="none" viewBox="0 0 1440 560"><g mask="url(&quot;#SvgjsMask1023&quot;)" fill="none"><rect width="1440" height="560" x="0" y="0" fill="rgba(228, 233, 247, 1)"></rect><path d="M 0,227 C 72,206.4 216,117.4 360,124 C 504,130.6 576,276 720,260 C 864,244 936,66.8 1080,44 C 1224,21.2 1368,125.6 1440,146L1440 560L0 560z" fill="rgba(228, 233, 247, 1)"></path><path d="M 0,313 C 96,336.8 288,435.6 480,432 C 672,428.4 768,273.8 960,295 C 1152,316.2 1344,489.4 1440,538L1440 560L0 560z" fill="rgba(255, 255, 255, 1)"></path></g><defs><mask id="SvgjsMask1023"><rect width="1440" height="560" fill="#ffffff"></rect></mask></defs></svg>