<svg xmlns="http://www.w3.org/2000/svg" version="1.1" xmlns:xlink="http://www.w3.org/1999/xlink" xmlns:svgjs="http://svgjs.com/svgjs" width="400" height="560" preserveAspectRatio="none" viewBox="0 0 400 560"><g mask="url(&quot;#SvgjsMask1008&quot;)" fill="none"><rect width="400" height="560" x="0" y="0" fill="rgba(228, 233, 247, 1)"></rect><path d="M 0,85 C 16,116 48,250.6 80,240 C 112,229.4 128,24.6 160,32 C 192,39.4 208,259.2 240,277 C 272,294.8 288,127 320,121 C 352,115 384,221.8 400,247L400 560L0 560z" fill="rgba(228, 233, 247, 1)"></path><path d="M 0,332 C 26.8,359.8 80.4,457.2 134,471 C 187.6,484.8 214.8,394 268,401 C 321.2,408 373.6,485 400,506L400 560L0 560z" fill="rgba(255, 255, 255, 1)"></path></g><defs><mask id="SvgjsMask1008"><rect width="400" height="560" fill="#ffffff"></rect></mask></defs></svg>